<?xml version="1.0" standalone="no"?>
<!DOCTYPE svg PUBLIC "-//W3C//DTD SVG 20010904//EN"
 "http://www.w3.org/TR/2001/REC-SVG-20010904/DTD/svg10.dtd">
<svg version="1.0" xmlns="http://www.w3.org/2000/svg"
 width="377.000000pt" height="156.000000pt" viewBox="0 0 377.000000 156.000000"
 preserveAspectRatio="xMidYMid meet">

<g transform="translate(0.000000,156.000000) scale(0.100000,-0.100000)"
fill="#000000" stroke="none">
<path d="M581 1540 c-275 -72 -491 -290 -561 -565 -28 -108 -28 -282 0 -391
61 -236 206 -411 431 -519 111 -53 194 -68 361 -63 124 3 154 8 223 32 44 15
112 46 150 68 90 53 220 183 273 273 235 401 77 920 -341 1115 -34 16 -98 39
-141 50 -107 27 -290 27 -395 0z m222 -112 c3 -13 22 -113 42 -223 21 -110 39
-202 41 -204 1 -2 59 36 128 83 68 47 130 86 136 86 31 0 15 -39 -65 -154 -58
-85 -82 -128 -73 -131 7 -2 107 -22 221 -43 115 -22 212 -43 217 -48 23 -23
-19 -37 -216 -74 -115 -22 -215 -41 -222 -42 -8 -2 20 -51 72 -128 47 -69 86
-131 86 -138 0 -32 -35 -17 -151 62 -82 56 -126 81 -130 73 -4 -7 -23 -104
-44 -217 -36 -200 -48 -237 -71 -222 -7 4 -31 106 -54 227 -23 121 -42 221
-44 222 -1 1 -57 -36 -126 -83 -68 -46 -129 -84 -137 -84 -28 0 -10 44 67 157
57 82 77 119 68 124 -7 3 -105 23 -218 44 -113 21 -211 43 -218 48 -28 22 18
38 227 77 118 22 216 42 218 44 2 1 -35 60 -82 129 -47 69 -85 130 -85 136 0
27 51 5 161 -71 66 -44 121 -79 122 -77 2 2 20 96 41 209 21 113 40 213 43
223 7 25 40 21 46 -5z"/>
<path d="M1810 1195 l0 -175 30 0 c29 0 30 2 30 42 l0 42 43 -42 c32 -32 51
-42 75 -42 18 0 32 3 32 7 0 4 -23 31 -52 60 l-52 53 52 53 c29 29 52 56 52
60 0 4 -14 7 -32 7 -24 0 -43 -10 -75 -42 l-43 -42 0 97 0 97 -30 0 -30 0 0
-175z"/>
<path d="M2337 1333 c-22 -21 0 -63 33 -63 15 0 31 37 24 54 -6 16 -45 22 -57
9z"/>
<path d="M2756 1239 c-60 -52 -61 -126 -1 -186 28 -28 40 -33 79 -33 61 0 99
21 120 64 32 68 12 142 -46 172 -28 15 -32 15 -40 0 -11 -20 -37 -21 -44 -1
-9 23 -30 18 -68 -16z"/>
<path d="M3232 1254 c-39 -27 -23 -84 23 -84 47 1 68 47 36 79 -25 25 -30 26
-59 5z m5 -46 c-3 -8 -6 -5 -6 6 -1 11 2 17 5 13 3 -3 4 -12 1 -19z"/>
<path d="M2068 1231 c-31 -27 -33 -34 -33 -91 0 -57 2 -64 33 -91 35 -31 94
-39 133 -19 13 7 19 7 19 0 0 -5 11 -10 25 -10 l25 0 0 120 0 120 -25 0 c-14
0 -25 -5 -25 -12 0 -9 -3 -9 -12 0 -7 7 -34 12 -60 12 -39 0 -54 -6 -80 -29z
m127 -36 c16 -15 25 -36 25 -55 0 -33 -38 -80 -64 -80 -30 0 -69 45 -69 80 0
24 7 40 27 57 34 29 51 29 81 -2z"/>
<path d="M2340 1140 l0 -120 25 0 25 0 0 120 0 120 -25 0 -25 0 0 -120z"/>
<path d="M2450 1140 l0 -120 25 0 c24 0 25 2 25 75 0 67 3 79 25 100 28 29 43
31 71 11 16 -12 20 -29 23 -100 3 -84 4 -86 28 -86 l25 0 -4 101 c-3 92 -5
103 -27 120 -26 21 -90 26 -122 9 -13 -7 -19 -7 -19 0 0 5 -11 10 -25 10 l-25
0 0 -120z"/>
<path d="M3019 1239 c-16 -16 -20 -28 -15 -53 7 -36 26 -53 78 -66 43 -12 54
-25 38 -45 -17 -21 -43 -19 -74 6 -26 20 -29 21 -44 5 -16 -16 -15 -19 11 -42
21 -18 40 -24 75 -24 60 0 92 21 92 61 0 47 -16 66 -70 84 -58 19 -66 28 -44
46 13 11 21 11 44 -3 27 -15 30 -15 45 2 15 17 15 19 -7 34 -33 24 -103 21
-129 -5z"/>
<path d="M1817 794 c-4 -4 -7 -162 -7 -351 l0 -343 85 0 85 0 2 172 3 173 54
-128 54 -128 59 3 60 3 53 125 54 125 1 -172 0 -173 85 0 85 0 0 350 0 350
-85 0 c-101 0 -87 16 -180 -203 -37 -87 -69 -156 -71 -154 -3 2 -39 82 -82
178 l-78 174 -85 3 c-47 1 -88 0 -92 -4z"/>
<path d="M2763 788 c-10 -13 -243 -667 -243 -680 0 -5 44 -8 99 -8 l98 0 15
53 15 52 109 3 110 3 18 -56 17 -55 100 0 c54 0 99 2 99 4 0 12 -234 673 -242
684 -7 8 -40 12 -98 12 -58 0 -91 -4 -97 -12z m129 -325 l25 -88 -55 -3 c-30
-2 -56 -2 -58 0 -5 5 49 178 56 178 3 0 18 -39 32 -87z"/>
<path d="M3227 794 c-4 -4 -7 -162 -7 -351 l0 -343 95 0 94 0 3 113 3 112 100
5 c115 6 157 22 209 80 41 45 50 82 44 184 -3 65 -7 79 -34 113 -16 21 -52 49
-80 63 -46 24 -60 25 -234 28 -102 2 -189 0 -193 -4z m316 -165 c25 -11 47
-47 47 -75 0 -8 -11 -26 -25 -39 -21 -22 -33 -25 -90 -25 l-65 0 0 68 c0 38 3
72 7 75 10 11 100 8 126 -4z"/>
</g>
</svg>
